<svg xmlns="http://www.w3.org/2000/svg" width="2000" viewBox="0 0 820 1015" preserveAspectRatio="xMidYMid meet" font-family="'Courier New', Consolas, monospace">
  <style>
    .cur { animation: blink 1.1s steps(1) infinite; }
    @keyframes blink { 50% { opacity: 0; } }
  </style>
  <rect width="820" height="1015" fill="#000000"/>
  <rect x="0" y="0" width="820" height="44" fill="#0a0a0a" stroke="#1a1a1a"/>
  <circle cx="26" cy="22" r="7" fill="#ffffff"/>
  <circle cx="52" cy="22" r="7" fill="#ffffff"/>
  <circle cx="78" cy="22" r="7" fill="#ffffff"/>
  <text x="410" y="28" fill="#ffffff" font-size="14" text-anchor="middle">Kcyb3r@github: ~</text>
  <text x="40" y="100" fill="#ffffff" font-size="28">KESHAV PAL</text>
  <text x="40" y="140" fill="#ffffff" font-size="18">Computer Engineering Student | Vibe Coder</text>
  <line x1="40" y1="180" x2="780" y2="180" stroke="#333333" stroke-width="2"/>
  <text x="40" y="230" fill="#ffffff" font-size="20">stack</text>
  <text x="40" y="265" fill="#ffffff" font-size="18">Python . C . Java . React . Linux . Git</text>
  <line x1="40" y1="305" x2="780" y2="305" stroke="#333333" stroke-width="2"/>
  <text x="40" y="355" fill="#ffffff" font-size="20">bio</text>
  <text x="40" y="390" fill="#ffffff" font-size="18">Computer engineering student &amp; vibe coder - building in Python and C,</text>
  <text x="40" y="420" fill="#ffffff" font-size="18">living in the Linux terminal, and breaking things to learn security.</text>
  <line x1="40" y1="460" x2="780" y2="460" stroke="#333333" stroke-width="2"/>
  <text x="40" y="510" fill="#ffffff" font-size="20">stats</text>
  <text x="40" y="545" fill="#ffffff" font-size="18">repos: 14   followers: 1   following: 6</text>
  <text x="40" y="575" fill="#ffffff" font-size="18">stars: 2   forks: 0   joined: 2024</text>
  <line x1="40" y1="615" x2="780" y2="615" stroke="#333333" stroke-width="2"/>
  <text x="40" y="665" fill="#ffffff" font-size="20">languages</text>
  <text x="40" y="705" fill="#ffffff" font-size="16">Python</text>
  <rect x="200" y="692" width="480" height="16" fill="#1a1a1a"/>
  <rect x="200" y="692" width="278" height="16" fill="#ffffff"/>
  <text x="780" y="705" fill="#ffffff" font-size="16" text-anchor="end">58%</text>
  <text x="40" y="747" fill="#ffffff" font-size="16">Java</text>
  <rect x="200" y="734" width="480" height="16" fill="#1a1a1a"/>
  <rect x="200" y="734" width="158" height="16" fill="#ffffff"/>
  <text x="780" y="747" fill="#ffffff" font-size="16" text-anchor="end">33%</text>
  <text x="40" y="789" fill="#ffffff" font-size="16">Shell</text>
  <rect x="200" y="776" width="480" height="16" fill="#1a1a1a"/>
  <rect x="200" y="776" width="24" height="16" fill="#ffffff"/>
  <text x="780" y="789" fill="#ffffff" font-size="16" text-anchor="end">5%</text>
  <text x="40" y="831" fill="#ffffff" font-size="16">Batchfile</text>
  <rect x="200" y="818" width="480" height="16" fill="#1a1a1a"/>
  <rect x="200" y="818" width="9" height="16" fill="#ffffff"/>
  <text x="780" y="831" fill="#ffffff" font-size="16" text-anchor="end">2%</text>
  <line x1="40" y1="865" x2="780" y2="865" stroke="#333333" stroke-width="2"/>
  <text x="40" y="915" fill="#ffffff" font-size="20">connect</text>
  <text x="40" y="950" fill="#ffffff" font-size="18">github: https://github.com/Kcyb3r</text>
  <text x="40" y="1007" fill="#ffffff" font-size="18" class="cur">&#9608;</text>
</svg>
