<svg xmlns="http://www.w3.org/2000/svg" width="2000" viewBox="0 0 820 1010" preserveAspectRatio="xMidYMid meet" font-family="'Courier New', Consolas, monospace">
  <style>
    .cur { animation: blink 1.1s steps(1) infinite; }
    @keyframes blink { 50% { opacity: 0; } }
  </style>
  <rect width="820" height="1010" fill="#000000"/>
  <rect x="0" y="0" width="820" height="44" fill="#0a0a0a" stroke="#1a1a1a"/>
  <circle cx="26" cy="22" r="7" fill="#ffffff"/>
  <circle cx="52" cy="22" r="7" fill="#ffffff"/>
  <circle cx="78" cy="22" r="7" fill="#ffffff"/>
  <text x="410" y="28" fill="#ffffff" font-size="14" text-anchor="middle">keshav@github: ~</text>
  <text x="40" y="100" fill="#ffffff" font-size="26">KESHAV PAL</text>
  <text x="40" y="175" fill="#ffffff" font-size="18">Keshav Pal  -  Computer Engineering Student | Vibe Coder</text>
  <text x="40" y="245" fill="#ffffff" font-size="18">Computer engineering student &amp; vibe coder - building in Python and C,</text>
  <text x="40" y="280" fill="#ffffff" font-size="18">living in the Linux terminal, and breaking things to learn security.</text>
  <text x="40" y="355" fill="#ffffff" font-size="18">Python - C - Java  |  React  |  Linux - Git</text>
  <text x="40" y="425" fill="#ffffff" font-size="18">github: https://github.com/Kcyb3r</text>
  <line x1="40" y1="470" x2="780" y2="470" stroke="#333333" stroke-width="2"/>
  <text x="40" y="520" fill="#ffffff" font-size="20">now</text>
  <text x="40" y="555" fill="#ffffff" font-size="18">- [ your current focus / learning ]</text>
  <line x1="40" y1="595" x2="780" y2="595" stroke="#333333" stroke-width="2"/>
  <text x="40" y="645" fill="#ffffff" font-size="20">featured</text>
  <text x="40" y="680" fill="#ffffff" font-size="18">- [ project-name ]   Python, C   - one-line description</text>
  <text x="40" y="710" fill="#ffffff" font-size="18">- [ react-java-app ]   React, Java - one-line description</text>
  <line x1="40" y1="750" x2="780" y2="750" stroke="#333333" stroke-width="2"/>
  <text x="40" y="800" fill="#ffffff" font-size="20">stack</text>
  <text x="40" y="835" fill="#ffffff" font-size="18">Python . C . Java . React . Linux . Git</text>
  <line x1="40" y1="875" x2="780" y2="875" stroke="#333333" stroke-width="2"/>
  <text x="40" y="925" fill="#ffffff" font-size="20">connect</text>
  <text x="40" y="960" fill="#ffffff" font-size="18">github: https://github.com/Kcyb3r</text>
  <text x="40" y="1000" fill="#ffffff" font-size="18" class="cur">&#9608;</text>
</svg>
