<svg xmlns="http://www.w3.org/2000/svg" width="2000" viewBox="0 0 820 950" preserveAspectRatio="xMidYMid meet" font-family="'Courier New', Consolas, monospace">
  <style>
    .cur { animation: blink 1.1s steps(1) infinite; }
    @keyframes blink { 50% { opacity: 0; } }
  </style>
  <rect width="820" height="950" fill="#000000"/>
  <rect x="0" y="0" width="820" height="44" fill="#0a0a0a" stroke="#1a1a1a"/>
  <circle cx="26" cy="22" r="7" fill="#ffffff"/>
  <circle cx="52" cy="22" r="7" fill="#ffffff"/>
  <circle cx="78" cy="22" r="7" fill="#ffffff"/>
  <text x="410" y="28" fill="#ffffff" font-size="14" text-anchor="middle">Kcyb3r@github: ~</text>
  <text x="40" y="100" fill="#ffffff" font-size="28">KESHAV PAL</text>
  <text x="40" y="140" fill="#ffffff" font-size="18">Computer Engineering Student | Vibe Coder</text>
  <line x1="40" y1="180" x2="780" y2="180" stroke="#333333" stroke-width="2"/>
  <text x="40" y="230" fill="#ffffff" font-size="20">stack</text>
  <rect x="40" y="252" width="82" height="26" rx="13" fill="#ffffff"/>
  <text x="81" y="270" fill="#000000" font-size="16" text-anchor="middle">Python</text>
  <rect x="132" y="252" width="32" height="26" rx="13" fill="#ffffff"/>
  <text x="148" y="270" fill="#000000" font-size="16" text-anchor="middle">C</text>
  <rect x="174" y="252" width="62" height="26" rx="13" fill="#ffffff"/>
  <text x="205" y="270" fill="#000000" font-size="16" text-anchor="middle">Java</text>
  <rect x="246" y="252" width="72" height="26" rx="13" fill="#ffffff"/>
  <text x="282" y="270" fill="#000000" font-size="16" text-anchor="middle">React</text>
  <rect x="328" y="252" width="72" height="26" rx="13" fill="#ffffff"/>
  <text x="364" y="270" fill="#000000" font-size="16" text-anchor="middle">Linux</text>
  <rect x="410" y="252" width="52" height="26" rx="13" fill="#ffffff"/>
  <text x="436" y="270" fill="#000000" font-size="16" text-anchor="middle">Git</text>
  <line x1="40" y1="315" x2="780" y2="315" stroke="#333333" stroke-width="2"/>
  <text x="40" y="365" fill="#ffffff" font-size="20">bio</text>
  <text x="40" y="400" fill="#ffffff" font-size="18">Computer engineering student &amp; vibe coder - building in Python and C,</text>
  <text x="40" y="430" fill="#ffffff" font-size="18">living in the Linux terminal, and breaking things to learn security.</text>
  <line x1="40" y1="470" x2="780" y2="470" stroke="#333333" stroke-width="2"/>
  <text x="40" y="520" fill="#ffffff" font-size="20">stats</text>
  <text x="40" y="555" fill="#ffffff" font-size="18">repos: 14   followers: 1   following: 6</text>
  <text x="40" y="585" fill="#ffffff" font-size="18">stars: 2   forks: 0   joined: 2024</text>
  <line x1="40" y1="625" x2="780" y2="625" stroke="#333333" stroke-width="2"/>
  <text x="40" y="675" fill="#ffffff" font-size="20">languages</text>
  <text x="40" y="715" fill="#ffffff" font-size="16">Python</text>
  <rect x="200" y="702" width="480" height="16" fill="#1a1a1a"/>
  <rect x="200" y="702" width="278" height="16" fill="#ffffff"/>
  <text x="780" y="715" fill="#ffffff" font-size="16" text-anchor="end">58%</text>
  <text x="40" y="757" fill="#ffffff" font-size="16">Java</text>
  <rect x="200" y="744" width="480" height="16" fill="#1a1a1a"/>
  <rect x="200" y="744" width="158" height="16" fill="#ffffff"/>
  <text x="780" y="757" fill="#ffffff" font-size="16" text-anchor="end">33%</text>
  <text x="40" y="799" fill="#ffffff" font-size="16">Shell</text>
  <rect x="200" y="786" width="480" height="16" fill="#1a1a1a"/>
  <rect x="200" y="786" width="24" height="16" fill="#ffffff"/>
  <text x="780" y="799" fill="#ffffff" font-size="16" text-anchor="end">5%</text>
  <text x="40" y="841" fill="#ffffff" font-size="16">Batchfile</text>
  <rect x="200" y="828" width="480" height="16" fill="#1a1a1a"/>
  <rect x="200" y="828" width="9" height="16" fill="#ffffff"/>
  <text x="780" y="841" fill="#ffffff" font-size="16" text-anchor="end">2%</text>
  <line x1="40" y1="875" x2="780" y2="875" stroke="#333333" stroke-width="2"/>
  <text x="40" y="942" fill="#ffffff" font-size="18" class="cur">&#9608;</text>
</svg>
